<svg xmlns="http://www.w3.org/2000/svg" viewBox="0 0 30.91 30.91"><defs><style>.cls-1{fill:#fff;}.cls-2{fill:#202020;}</style></defs><g id="Layer_2" data-name="Layer 2"><g id="Layer_1-2" data-name="Layer 1"><circle class="cls-1" cx="15.45" cy="15.45" r="15.45"/><path class="cls-2" d="M17.31,8.55h.21c.27,0,.92.69,2,2.09,2.76,3,4.13,5,4.13,6.09v.21q0,1.06-2.77,3.32l-.89.27c-.68,0-1.54-.83-2.57-2.5L15,15.12a1.81,1.81,0,0,0-.74-.28c-.44,0-1.73,1.45-3.86,4.33a6.74,6.74,0,0,1-1.3,1.42c-.85-.55-1.28-1-1.28-1.48v-.34C8,18,9.52,16,12.37,12.88a2,2,0,0,1,1.35-.82c.62,0,1.63,1.09,3,3.26,1.16,1.39,1.89,2.09,2.17,2.09,1.53-.85,2.4-1.64,2.64-2.37v-.2a9,9,0,0,0-2.51-3.32c0-.1-.2-.16-.61-.2H18.4c-.19,0-.64.38-1.36,1.15l-.54.21h-.14c-.43,0-.95-.5-1.55-1.5l-.07-.4C16,9.29,16.86,8.55,17.31,8.55Z"/></g></g></svg>