<svg xmlns="http://www.w3.org/2000/svg" viewBox="0 0 219.36 30.91"><defs><style>.cls-1{fill:#202020;}.cls-2{fill:#fff;}</style></defs><g id="Layer_2" data-name="Layer 2"><g id="Layer_1-2" data-name="Layer 1"><path class="cls-1" d="M46.06,10.1h.2c.27,0,.93.7,2,2.1q4.14,4.44,4.14,6.09v.21q0,1.07-2.78,3.32l-.88.27c-.69,0-1.55-.84-2.57-2.51l-2.38-2.91A1.72,1.72,0,0,0,43,16.4c-.44,0-1.72,1.44-3.86,4.33a7.23,7.23,0,0,1-1.29,1.42c-.86-.55-1.29-1-1.29-1.48v-.35q.28-1.16,4.54-5.89a2,2,0,0,1,1.36-.81q.91,0,3,3.25c1.17,1.4,1.89,2.1,2.17,2.1Q50,17.7,50.32,16.6v-.2a8.92,8.92,0,0,0-2.5-3.32c0-.1-.21-.17-.62-.2h-.06c-.19,0-.64.38-1.36,1.14l-.54.21h-.13c-.43,0-1-.5-1.56-1.49l-.07-.41C44.74,10.85,45.6,10.1,46.06,10.1Z"/><path class="cls-1" d="M63,11h.14q1.51,0,6,10.32v.15l-.63.76c-.27-.29-1.49-2.46-3.66-6.53-.77-1.08-1.36-1.62-1.76-1.62H63q-1.12,0-4.92,5.07l-2.25,2.95h-.28c-.52,0-1-.47-1.4-1.41v-.07a71.39,71.39,0,0,1,5.13-6.82Q62.05,11,63,11Zm.07,6c1,.65,1.55,1.24,1.55,1.75a2.91,2.91,0,0,1-1.48,1.62c-1-.57-1.54-1.1-1.61-1.62A3.16,3.16,0,0,1,63,17Z"/><path class="cls-1" d="M76.58,10.24h.18q.85,0,2.91,2.55a1.44,1.44,0,0,1,.25.73v.19c0,.55-.77,1.57-2.31,3l-.06.36a17.94,17.94,0,0,0,2.68,3.22v.13a6.81,6.81,0,0,1-1.77,1.7,14.18,14.18,0,0,1-2.85-3.89,2,2,0,0,1-.31-.91v-.3c2.14-1.84,3.22-3,3.22-3.59,0-.32-.55-.77-1.64-1.34h-.06c-1,.4-1.46.84-1.46,1.34a84.6,84.6,0,0,0-2.61,8.69h-.06a12.51,12.51,0,0,1-1.83-1.52q2.16-7.38,3.34-9A4.19,4.19,0,0,1,76.58,10.24Z"/><path class="cls-1" d="M91,11h.15q1.52,0,6,10.32v.15l-.63.76c-.27-.29-1.49-2.46-3.66-6.53-.77-1.08-1.35-1.62-1.75-1.62H91q-1.12,0-4.92,5.07l-2.24,2.95h-.28q-.79,0-1.41-1.41v-.07a71.39,71.39,0,0,1,5.13-6.82C89.11,11.92,90.36,11,91,11Zm.08,6c1,.65,1.54,1.24,1.54,1.75a2.93,2.93,0,0,1-1.47,1.62c-1-.57-1.55-1.1-1.62-1.62A3.16,3.16,0,0,1,91,17Z"/><path class="cls-1" d="M105,10.18h.1c.27,0,.56.3.89.89v.1q0,.63-2,2.34c-.73.72-1.09,1.29-1.09,1.72s.36.86,1.09,1.61a3.35,3.35,0,0,1,.47,1.77v.25c0,.79-1,1.77-2.86,3a4.46,4.46,0,0,1-1,.32,1.76,1.76,0,0,1-1.62-1v-.05a26.89,26.89,0,0,1,2.71-1.36,2.61,2.61,0,0,0,1.15-1.82c0-.46-.61-1.23-1.82-2.34a1.48,1.48,0,0,1-.22-.78c0-.8,1.31-2.31,3.91-4.53Z"/><path class="cls-1" d="M116.72,11h.14q1.52,0,6,10.32v.15l-.63.76c-.27-.29-1.49-2.46-3.66-6.53-.77-1.08-1.35-1.62-1.75-1.62h-.07q-1.12,0-4.92,5.07l-2.25,2.95h-.28q-.8,0-1.41-1.41v-.07A71.39,71.39,0,0,1,113,13.79C114.81,11.92,116.06,11,116.72,11Zm.07,6c1,.65,1.54,1.24,1.54,1.75a2.93,2.93,0,0,1-1.47,1.62c-1-.57-1.55-1.1-1.62-1.62A3.14,3.14,0,0,1,116.72,17Z"/><path class="cls-1" d="M131.43,10.29h.07q1.38,0,2.67,8.09l4.52-7.27.41-.4c.75,0,1.28.56,1.58,1.57l-7,9.86c-.34,0-.95-3.08-1.85-9.24a8.48,8.48,0,0,0-1.65,2q-1.71,2.46-4.45,6.85h-.07c-1-.66-1.43-1.21-1.43-1.65V20a81.21,81.21,0,0,1,5.47-8.22C130.51,10.8,131.08,10.29,131.43,10.29Z"/><path class="cls-1" d="M147.18,9.51l2,1.64a26.62,26.62,0,0,0-4.58,6.09,1.39,1.39,0,0,0-.38.76v.06q0,1.07,2.76,2h.19a6,6,0,0,0,2.33-2.51,3.6,3.6,0,0,0-1.07-.57l-1.32,1.64H147c-.37-.29-.56-.56-.56-.82s.82-1.47,2.45-3.33a.73.73,0,0,1,.63-.38c.3,0,1.89,1.25,4.78,3.77.38.37.57.66.57.88V19c0,.6-.53,1.27-1.58,2a38.07,38.07,0,0,0-2.83-2.78h-.06q-2.73,3.92-3.9,3.91h-.31a5.43,5.43,0,0,1-3.71-1.7,3.52,3.52,0,0,1-.95-2q0-2.89,5.6-8.92Z"/><path class="cls-1" d="M165.27,11h.14q1.51,0,6,10.32v.15l-.63.76c-.27-.29-1.5-2.46-3.66-6.53-.78-1.08-1.36-1.62-1.76-1.62h-.07q-1.12,0-4.92,5.07l-2.25,2.95h-.28c-.52,0-1-.47-1.4-1.41v-.07a69.74,69.74,0,0,1,5.13-6.82Q164.28,11,165.27,11Zm.07,6c1,.65,1.55,1.24,1.55,1.75a3,3,0,0,1-1.48,1.62c-1-.57-1.54-1.1-1.62-1.62A3.22,3.22,0,0,1,165.27,17Z"/><path class="cls-1" d="M180,10.29h.07q1.38,0,2.68,8.09l4.52-7.27.4-.4c.76,0,1.28.56,1.58,1.57l-7,9.86q-.51,0-1.85-9.24a8,8,0,0,0-1.65,2q-1.71,2.46-4.45,6.85h-.08c-.95-.66-1.43-1.21-1.43-1.65V20a82.33,82.33,0,0,1,5.48-8.22C179.06,10.8,179.63,10.29,180,10.29Z"/><path class="cls-1" d="M193.49,10q4.74,5.72,9.28,10.49c0,.24-.24.56-.72.95h-.12A40.1,40.1,0,0,0,198,17q-.58-.54-.84-.54c-.27,0-2.07,1.83-5.39,5.45l-.53.24q-.66,0-1.62-1.5v-.12a77.62,77.62,0,0,0,5.63-6l.05-.36v-.07q-1.09-1.1-2.93-3.35v-.18Z"/><path class="cls-1" d="M213.24,11h.15q1.52,0,6,10.32v.15l-.63.76c-.27-.29-1.49-2.46-3.66-6.53-.77-1.08-1.36-1.62-1.76-1.62h-.07q-1.12,0-4.92,5.07l-2.25,2.95h-.28c-.52,0-1-.47-1.4-1.41v-.07a71.39,71.39,0,0,1,5.13-6.82Q212.25,11,213.24,11Zm.07,6c1,.65,1.55,1.24,1.55,1.75a2.93,2.93,0,0,1-1.47,1.62c-1-.57-1.55-1.1-1.62-1.62A3.16,3.16,0,0,1,213.24,17Z"/><circle class="cls-1" cx="15.45" cy="15.45" r="15.45"/><path class="cls-2" d="M17.31,8.55h.21c.27,0,.92.69,2,2.09,2.76,3,4.13,5,4.13,6.09v.21q0,1.06-2.77,3.32l-.89.27c-.68,0-1.54-.83-2.57-2.5L15,15.12a1.81,1.81,0,0,0-.74-.28c-.44,0-1.73,1.45-3.86,4.33a6.74,6.74,0,0,1-1.3,1.42c-.85-.55-1.28-1-1.28-1.48v-.34C8,18,9.52,16,12.37,12.88a2,2,0,0,1,1.35-.82c.62,0,1.63,1.09,3,3.26,1.16,1.39,1.89,2.09,2.17,2.09,1.53-.85,2.4-1.64,2.64-2.37v-.2a9,9,0,0,0-2.51-3.32c0-.1-.2-.16-.61-.2H18.4c-.19,0-.64.38-1.36,1.15l-.54.21h-.14c-.43,0-.95-.5-1.55-1.5l-.07-.4C16,9.29,16.86,8.55,17.31,8.55Z"/></g></g></svg>