<svg xmlns="http://www.w3.org/2000/svg" viewBox="0 0 194.45 78.46"><defs><style>.cls-1{fill:#752c2e;}.cls-2{font-size:21.05px;fill:#231f20;font-family:Gotham-Black, Gotham Black;font-weight:800;}.cls-3{letter-spacing:-0.05em;}.cls-4{letter-spacing:-0.03em;}.cls-5{letter-spacing:-0.09em;}.cls-6{letter-spacing:0em;}.cls-7{letter-spacing:-0.02em;}.cls-8{letter-spacing:-0.01em;}.cls-9{letter-spacing:-0.02em;}</style></defs><g id="Layer_2" data-name="Layer 2"><g id="Layer_1-2" data-name="Layer 1"><path class="cls-1" d="M133.34,1c1.28,1.21,2.36,2.28,3.49,3.28.66.58.55,1,.11,1.72-2.56,4-5.14,8-7.52,12.1a26.08,26.08,0,0,0-1.88,5.12,1.44,1.44,0,0,0,.27,1.2c2.59,2.61,5.21,5.17,7.83,7.74a3.61,3.61,0,0,0,.5.33c2,1.24,2.71,1.31,4.25-.43a75,75,0,0,0,6.76-8.37C151.57,17,155.73,10.1,160,3.29c.22-.36.46-.72.77-1.19l7.43,6.61c-3.24,5.59-6.29,11.2-9.69,16.6-4.47,7.1-9.18,14-13.86,21a7.87,7.87,0,0,1-2.38,1.9c-.22.14-.82-.07-1.1-.3a67.63,67.63,0,0,1-16.43-19.06,20.25,20.25,0,0,1-2.95-6.91,4.21,4.21,0,0,1,.15-2.4c1.72-3.29,3.48-6.57,5.42-9.73C129.18,6.85,131.25,4.06,133.34,1Z"/><path class="cls-1" d="M111,25.25c.91,1.17,1.81,2.29,2.65,3.46,1.86,2.6,1.74,5.28.24,8a15.08,15.08,0,0,1-4.84,5.08,41.17,41.17,0,0,1-14.27,6.5c-.34.08-.91,0-1-.17-1.15-1.66-2.21-3.37-3.4-5.24a40,40,0,0,0,16.85-8,2.68,2.68,0,0,0,.93-3.46,21.22,21.22,0,0,0-1.8-3.1c-.67-.94-1.49-1.77-2.28-2.69,1.16-1.45,2.37-2.88,3.49-4.38,1.75-2.36,1.71-2.7-.57-4.53-4.46-3.57-9.52-6.17-14.52-8.84-1.5-.8-1.52-.79-.75-2.35s1.54-2.9,2.24-4.38c.5-1,1-1.32,2.22-.81a46.8,46.8,0,0,1,10.13,6.12c2.84,2.19,5.56,4.55,8.33,6.85a6.88,6.88,0,0,1,.94.93c1.29,1.6,1.41,2.22.29,3.95C114.32,20.59,112.65,22.89,111,25.25Z"/><path class="cls-1" d="M41.36,48.65a9.81,9.81,0,0,1-1.94-.93,48.29,48.29,0,0,1-4.26-3.83,2.18,2.18,0,0,1-.11-1.84c1.16-3.19,2.32-6.39,3.65-9.51,3-7.06,6-14.14,9.26-21.09,1.75-3.7,4.09-7.13,6.14-10.7.47-.81.94-.87,1.73-.36,1.51,1,3.07,1.88,4.66,2.7,1,.54,1.22,1.1.73,2.17C58.57,11,56,16.82,53.39,22.6q-5.6,12.45-11.22,24.87A8.07,8.07,0,0,1,41.36,48.65Z"/><path class="cls-1" d="M4.06,5.83C5.39,4.18,6.61,2.54,8,1,9.15-.29,9.52-.33,10.83.84c2,1.75,3.91,3.55,5.7,5.48,2.85,3.08,5.7,6.18,8.31,9.46a22.21,22.21,0,0,1,4.68,9.86,4.46,4.46,0,0,1-.5,2.75,36.31,36.31,0,0,1-3.9,5.85C20.44,39.61,14.76,43.87,9,48c-1,.75-1.5.57-1.93-.61-1.46-4-1.39-4,1.81-6.72,3.75-3.24,7.36-6.64,11.05-10a5.17,5.17,0,0,0,.86-6.27,52.66,52.66,0,0,0-4.55-6C12.73,14.62,9,11,5.38,7.25,5,6.85,4.62,6.44,4.06,5.83Z"/><path class="cls-1" d="M169,5.77c1.45-1.73,2.87-3.44,4.32-5.13a1.27,1.27,0,0,1,2.06-.13c2.11,2,4.33,3.92,6.32,6.05,2.82,3,5.59,6.06,8.14,9.29a21.75,21.75,0,0,1,4.57,9.52,6.64,6.64,0,0,1-.61,3.44,25,25,0,0,1-5.65,7.54,108.24,108.24,0,0,1-14.07,11.56c-1.22.87-1.6.71-2.11-.72-1.36-3.87-1.29-3.79,1.74-6.42q5.76-5,11.29-10.22a4.56,4.56,0,0,0,.84-5.84,28.88,28.88,0,0,0-4-5.53C178,15,174,11.06,170.11,7,169.78,6.68,169.47,6.31,169,5.77Z"/><path class="cls-1" d="M65.52,48.53a6.19,6.19,0,0,1-5.2-3.94,1.33,1.33,0,0,1,.57-1.05c2.59-1.51,5.22-2.93,7.81-4.43a10.8,10.8,0,0,0,4.83-6.32A4.08,4.08,0,0,0,72.94,29c-1.55-2.13-3.13-4.24-4.87-6.21A5.06,5.06,0,0,1,67,17a30.14,30.14,0,0,1,4-6.34c2.75-3.26,5.77-6.3,8.73-9.39a2.49,2.49,0,0,1,4,.24c1.93,2.34,2.07,3.52.19,5.92-1.59,2-3.5,3.83-5.18,5.81a55.56,55.56,0,0,0-3.63,4.74,4.44,4.44,0,0,0,.11,5.37c.64.91,1.25,1.86,2,2.72a11.38,11.38,0,0,1-.25,14.87c-2.7,3-5.58,5.73-9.45,7.17A15.83,15.83,0,0,1,65.52,48.53Z"/><path class="cls-1" d="M178.17,24.16a14.74,14.74,0,0,1-.87,2.3,10.75,10.75,0,0,1-1.61,2.07c-2.09,2.19-2.4,2.2-4.77.33-3.22-2.54-3.55-4.1-1.48-7.56a16.44,16.44,0,0,1,2.13-2.73,1.4,1.4,0,0,1,2.12-.11c1,.84,2,1.56,2.95,2.44A4.51,4.51,0,0,1,178.17,24.16Z"/><path class="cls-1" d="M13.32,24.05a19.38,19.38,0,0,1-1.07,2.61,8.45,8.45,0,0,1-1.58,1.95C8.39,30.73,9.06,31,6,28.88a3.11,3.11,0,0,1-.28-.23c-2.91-2.44-3.22-3.92-1.33-7.14a17.28,17.28,0,0,1,2.25-2.93,1.36,1.36,0,0,1,2.11-.11c1.15,1,2.43,2,3.46,3.1A9.28,9.28,0,0,1,13.32,24.05Z"/><path class="cls-1" d="M100.1,33.78c-.16,1.63-1.26,2.62-2.4,3.57-1.33,1.12-1.43,1.11-2.79,0l-.45-.39c-2.49-2.31-2.58-3.75-.36-6.35,1.64-1.91,1.88-1.95,3.79-.35A5,5,0,0,1,100.1,33.78Z"/><path class="cls-1" d="M94.87,14.52c1.53.88,2.74,1.48,3.84,2.24a2.54,2.54,0,0,1,1,3.26,42.17,42.17,0,0,1-2.35,3.91c-1.32-.61-2.68-1.16-3.94-1.87a1.94,1.94,0,0,1-.86-2.51C93.24,17.94,94,16.39,94.87,14.52Z"/><text class="cls-2" transform="translate(0 74.82)"><tspan class="cls-3">K</tspan><tspan class="cls-4" x="14.21" y="0">O</tspan><tspan class="cls-5" x="31.07" y="0">T</tspan><tspan class="cls-6" x="43.07" y="0">A MA</tspan><tspan class="cls-7" x="100.65" y="0">K</tspan><tspan class="cls-8" x="115.59" y="0">AS</tspan><tspan class="cls-9" x="145.64" y="0">S</tspan><tspan x="159.05" y="0">AR</tspan></text></g></g></svg>