<svg width="219" height="55" viewBox="0 0 219 55" fill="none" xmlns="http://www.w3.org/2000/svg">
<path d="M59.744 20.008C60.176 20.024 60.752 20.04 61.472 20.056C62.192 20.072 62.912 20.08 63.632 20.08C64.416 20.08 65.168 20.072 65.888 20.056C66.624 20.04 67.144 20.032 67.448 20.032C69.784 20.032 71.52 20.472 72.656 21.352C73.808 22.232 74.384 23.368 74.384 24.76C74.384 25.336 74.264 25.944 74.024 26.584C73.8 27.208 73.408 27.792 72.848 28.336C72.304 28.864 71.544 29.296 70.568 29.632C69.608 29.968 68.392 30.136 66.92 30.136H64.424V29.656H66.68C67.56 29.656 68.224 29.44 68.672 29.008C69.136 28.576 69.448 28.008 69.608 27.304C69.784 26.6 69.872 25.84 69.872 25.024C69.872 23.504 69.672 22.368 69.272 21.616C68.872 20.864 68.192 20.488 67.232 20.488C66.64 20.488 66.256 20.624 66.08 20.896C65.92 21.168 65.84 21.72 65.84 22.552V34.264C65.84 34.904 65.904 35.384 66.032 35.704C66.16 36.008 66.416 36.208 66.8 36.304C67.184 36.4 67.736 36.456 68.456 36.472V37C67.928 36.984 67.248 36.968 66.416 36.952C65.584 36.936 64.712 36.928 63.8 36.928C63.08 36.928 62.368 36.936 61.664 36.952C60.976 36.968 60.336 36.984 59.744 37V36.52C60.24 36.488 60.608 36.424 60.848 36.328C61.104 36.232 61.272 36.04 61.352 35.752C61.448 35.464 61.496 35.032 61.496 34.456V22.552C61.496 21.96 61.448 21.528 61.352 21.256C61.272 20.968 61.104 20.776 60.848 20.68C60.608 20.568 60.24 20.504 59.744 20.488V20.008ZM78.3082 37.168C77.5722 37.168 76.9642 37.032 76.4842 36.76C76.0042 36.472 75.6522 36.096 75.4282 35.632C75.2042 35.168 75.0922 34.672 75.0922 34.144C75.0922 33.472 75.2442 32.92 75.5482 32.488C75.8682 32.056 76.2762 31.712 76.7722 31.456C77.2682 31.184 77.7882 30.96 78.3322 30.784C78.8762 30.608 79.3962 30.44 79.8922 30.28C80.3882 30.104 80.7882 29.904 81.0922 29.68C81.3962 29.44 81.5482 29.136 81.5482 28.768V26.776C81.5482 26.424 81.4922 26.096 81.3802 25.792C81.2842 25.472 81.1002 25.216 80.8282 25.024C80.5722 24.816 80.2122 24.712 79.7482 24.712C79.4602 24.712 79.1802 24.752 78.9082 24.832C78.6362 24.912 78.3962 25.04 78.1882 25.216C78.7002 25.392 79.0762 25.656 79.3162 26.008C79.5722 26.36 79.7002 26.752 79.7002 27.184C79.7002 27.776 79.4922 28.248 79.0762 28.6C78.6762 28.936 78.1962 29.104 77.6362 29.104C77.0282 29.104 76.5562 28.912 76.2202 28.528C75.9002 28.144 75.7402 27.68 75.7402 27.136C75.7402 26.656 75.8602 26.256 76.1002 25.936C76.3402 25.6 76.6922 25.296 77.1562 25.024C77.6202 24.752 78.1802 24.552 78.8362 24.424C79.4922 24.296 80.1882 24.232 80.9242 24.232C81.6762 24.232 82.3642 24.312 82.9882 24.472C83.6282 24.616 84.1722 24.912 84.6202 25.36C84.9722 25.728 85.1962 26.176 85.2922 26.704C85.3882 27.232 85.4362 27.904 85.4362 28.72V35.2C85.4362 35.6 85.4682 35.88 85.5322 36.04C85.6122 36.184 85.7322 36.256 85.8922 36.256C86.0362 36.256 86.1722 36.216 86.3002 36.136C86.4282 36.056 86.5562 35.968 86.6842 35.872L86.9482 36.28C86.5962 36.568 86.1802 36.792 85.7002 36.952C85.2202 37.096 84.7002 37.168 84.1402 37.168C83.5002 37.168 82.9962 37.088 82.6282 36.928C82.2762 36.752 82.0202 36.52 81.8602 36.232C81.7162 35.944 81.6362 35.624 81.6202 35.272C81.2682 35.848 80.8282 36.312 80.3002 36.664C79.7722 37 79.1082 37.168 78.3082 37.168ZM80.3002 35.44C80.5562 35.44 80.7802 35.392 80.9722 35.296C81.1802 35.184 81.3722 35 81.5482 34.744V29.752C81.4202 29.976 81.2442 30.192 81.0202 30.4C80.8122 30.592 80.5882 30.792 80.3482 31C80.1082 31.192 79.8762 31.408 79.6522 31.648C79.4442 31.888 79.2682 32.176 79.1242 32.512C78.9962 32.832 78.9322 33.224 78.9322 33.688C78.9322 34.312 79.0602 34.76 79.3162 35.032C79.5722 35.304 79.9002 35.44 80.3002 35.44ZM96.1261 24.232C96.6701 24.232 97.1021 24.352 97.4221 24.592C97.7421 24.816 97.9741 25.112 98.1181 25.48C98.2621 25.832 98.3341 26.184 98.3341 26.536C98.3341 27.192 98.1421 27.72 97.7581 28.12C97.3901 28.52 96.9021 28.72 96.2941 28.72C95.6541 28.72 95.1661 28.576 94.8301 28.288C94.4941 27.984 94.3261 27.584 94.3261 27.088C94.3261 26.592 94.4301 26.184 94.6381 25.864C94.8621 25.544 95.1341 25.272 95.4541 25.048C95.2141 25.016 94.9821 25.048 94.7581 25.144C94.5021 25.208 94.2621 25.328 94.0381 25.504C93.8141 25.68 93.6221 25.888 93.4621 26.128C93.3021 26.368 93.1741 26.632 93.0781 26.92C92.9981 27.192 92.9581 27.472 92.9581 27.76V34.528C92.9581 35.296 93.1261 35.816 93.4621 36.088C93.8141 36.36 94.3661 36.496 95.1181 36.496V37C94.7501 36.984 94.2061 36.968 93.4861 36.952C92.7661 36.92 92.0221 36.904 91.2541 36.904C90.5661 36.904 89.8701 36.92 89.1661 36.952C88.4781 36.968 87.9661 36.984 87.6301 37V36.496C88.1581 36.496 88.5261 36.376 88.7341 36.136C88.9581 35.896 89.0701 35.44 89.0701 34.768V27.184C89.0701 26.464 88.9661 25.936 88.7581 25.6C88.5501 25.248 88.1741 25.072 87.6301 25.072V24.568C88.1421 24.616 88.6381 24.64 89.1181 24.64C89.8381 24.64 90.5181 24.616 91.1581 24.568C91.8141 24.504 92.4141 24.416 92.9581 24.304V26.272C93.1501 25.856 93.3981 25.496 93.7021 25.192C94.0221 24.888 94.3821 24.656 94.7821 24.496C95.1981 24.32 95.6461 24.232 96.1261 24.232ZM102.261 37.168C101.525 37.168 100.917 37.032 100.437 36.76C99.9573 36.472 99.6053 36.096 99.3813 35.632C99.1573 35.168 99.0453 34.672 99.0453 34.144C99.0453 33.472 99.1973 32.92 99.5013 32.488C99.8213 32.056 100.229 31.712 100.725 31.456C101.221 31.184 101.741 30.96 102.285 30.784C102.829 30.608 103.349 30.44 103.845 30.28C104.341 30.104 104.741 29.904 105.045 29.68C105.349 29.44 105.501 29.136 105.501 28.768V26.776C105.501 26.424 105.445 26.096 105.333 25.792C105.237 25.472 105.053 25.216 104.781 25.024C104.525 24.816 104.165 24.712 103.701 24.712C103.413 24.712 103.133 24.752 102.861 24.832C102.589 24.912 102.349 25.04 102.141 25.216C102.653 25.392 103.029 25.656 103.269 26.008C103.525 26.36 103.653 26.752 103.653 27.184C103.653 27.776 103.445 28.248 103.029 28.6C102.629 28.936 102.149 29.104 101.589 29.104C100.981 29.104 100.509 28.912 100.173 28.528C99.8533 28.144 99.6933 27.68 99.6933 27.136C99.6933 26.656 99.8133 26.256 100.053 25.936C100.293 25.6 100.645 25.296 101.109 25.024C101.573 24.752 102.133 24.552 102.789 24.424C103.445 24.296 104.141 24.232 104.877 24.232C105.629 24.232 106.317 24.312 106.941 24.472C107.581 24.616 108.125 24.912 108.573 25.36C108.925 25.728 109.149 26.176 109.245 26.704C109.341 27.232 109.389 27.904 109.389 28.72V35.2C109.389 35.6 109.421 35.88 109.485 36.04C109.565 36.184 109.685 36.256 109.845 36.256C109.989 36.256 110.125 36.216 110.253 36.136C110.381 36.056 110.509 35.968 110.637 35.872L110.901 36.28C110.549 36.568 110.133 36.792 109.653 36.952C109.173 37.096 108.653 37.168 108.093 37.168C107.453 37.168 106.949 37.088 106.581 36.928C106.229 36.752 105.973 36.52 105.813 36.232C105.669 35.944 105.589 35.624 105.573 35.272C105.221 35.848 104.781 36.312 104.253 36.664C103.725 37 103.061 37.168 102.261 37.168ZM104.253 35.44C104.509 35.44 104.733 35.392 104.925 35.296C105.133 35.184 105.325 35 105.501 34.744V29.752C105.373 29.976 105.197 30.192 104.973 30.4C104.765 30.592 104.541 30.792 104.301 31C104.061 31.192 103.829 31.408 103.605 31.648C103.397 31.888 103.221 32.176 103.077 32.512C102.949 32.832 102.885 33.224 102.885 33.688C102.885 34.312 103.013 34.76 103.269 35.032C103.525 35.304 103.853 35.44 104.253 35.44ZM116.455 24.232C117.159 24.232 117.767 24.312 118.279 24.472C118.791 24.632 119.167 24.784 119.407 24.928C119.967 25.28 120.303 25.056 120.415 24.256H120.919C120.887 24.72 120.863 25.28 120.847 25.936C120.831 26.576 120.823 27.44 120.823 28.528H120.319C120.255 27.936 120.111 27.352 119.887 26.776C119.679 26.2 119.367 25.728 118.951 25.36C118.535 24.976 117.991 24.784 117.319 24.784C116.887 24.784 116.519 24.912 116.215 25.168C115.927 25.424 115.783 25.776 115.783 26.224C115.783 26.704 115.927 27.128 116.215 27.496C116.503 27.864 116.871 28.216 117.319 28.552C117.783 28.888 118.247 29.248 118.711 29.632C119.223 30.016 119.679 30.408 120.079 30.808C120.495 31.192 120.823 31.616 121.063 32.08C121.319 32.528 121.447 33.072 121.447 33.712C121.447 34.432 121.231 35.064 120.799 35.608C120.367 36.152 119.799 36.576 119.095 36.88C118.391 37.184 117.607 37.336 116.743 37.336C116.215 37.336 115.751 37.28 115.351 37.168C114.967 37.072 114.647 36.944 114.391 36.784C114.151 36.672 113.935 36.576 113.743 36.496C113.567 36.416 113.391 36.36 113.215 36.328C113.055 36.312 112.919 36.384 112.807 36.544C112.695 36.704 112.607 36.912 112.543 37.168H112.039C112.071 36.656 112.095 36.032 112.111 35.296C112.127 34.56 112.135 33.584 112.135 32.368H112.639C112.735 33.232 112.911 33.992 113.167 34.648C113.439 35.304 113.799 35.824 114.247 36.208C114.695 36.576 115.223 36.76 115.831 36.76C116.103 36.76 116.351 36.712 116.575 36.616C116.815 36.504 117.007 36.336 117.151 36.112C117.311 35.888 117.391 35.6 117.391 35.248C117.391 34.544 117.167 33.96 116.719 33.496C116.271 33.016 115.719 32.496 115.063 31.936C114.551 31.504 114.071 31.08 113.623 30.664C113.191 30.248 112.831 29.792 112.543 29.296C112.271 28.8 112.135 28.24 112.135 27.616C112.135 26.896 112.335 26.288 112.735 25.792C113.151 25.28 113.687 24.896 114.343 24.64C114.999 24.368 115.703 24.232 116.455 24.232ZM126.05 37.168C125.314 37.168 124.706 37.032 124.226 36.76C123.746 36.472 123.394 36.096 123.17 35.632C122.946 35.168 122.834 34.672 122.834 34.144C122.834 33.472 122.986 32.92 123.29 32.488C123.61 32.056 124.018 31.712 124.514 31.456C125.01 31.184 125.53 30.96 126.074 30.784C126.618 30.608 127.138 30.44 127.634 30.28C128.13 30.104 128.53 29.904 128.834 29.68C129.138 29.44 129.29 29.136 129.29 28.768V26.776C129.29 26.424 129.234 26.096 129.122 25.792C129.026 25.472 128.842 25.216 128.57 25.024C128.314 24.816 127.954 24.712 127.49 24.712C127.202 24.712 126.922 24.752 126.65 24.832C126.378 24.912 126.138 25.04 125.93 25.216C126.442 25.392 126.818 25.656 127.058 26.008C127.314 26.36 127.442 26.752 127.442 27.184C127.442 27.776 127.234 28.248 126.818 28.6C126.418 28.936 125.938 29.104 125.378 29.104C124.77 29.104 124.298 28.912 123.962 28.528C123.642 28.144 123.482 27.68 123.482 27.136C123.482 26.656 123.602 26.256 123.842 25.936C124.082 25.6 124.434 25.296 124.898 25.024C125.362 24.752 125.922 24.552 126.578 24.424C127.234 24.296 127.93 24.232 128.666 24.232C129.418 24.232 130.106 24.312 130.73 24.472C131.37 24.616 131.914 24.912 132.362 25.36C132.714 25.728 132.938 26.176 133.034 26.704C133.13 27.232 133.178 27.904 133.178 28.72V35.2C133.178 35.6 133.21 35.88 133.274 36.04C133.354 36.184 133.474 36.256 133.634 36.256C133.778 36.256 133.914 36.216 134.042 36.136C134.17 36.056 134.298 35.968 134.426 35.872L134.69 36.28C134.338 36.568 133.922 36.792 133.442 36.952C132.962 37.096 132.442 37.168 131.882 37.168C131.242 37.168 130.738 37.088 130.37 36.928C130.018 36.752 129.762 36.52 129.602 36.232C129.458 35.944 129.378 35.624 129.362 35.272C129.01 35.848 128.57 36.312 128.042 36.664C127.514 37 126.85 37.168 126.05 37.168ZM128.042 35.44C128.298 35.44 128.522 35.392 128.714 35.296C128.922 35.184 129.114 35 129.29 34.744V29.752C129.162 29.976 128.986 30.192 128.762 30.4C128.554 30.592 128.33 30.792 128.09 31C127.85 31.192 127.618 31.408 127.394 31.648C127.186 31.888 127.01 32.176 126.866 32.512C126.738 32.832 126.674 33.224 126.674 33.688C126.674 34.312 126.802 34.76 127.058 35.032C127.314 35.304 127.642 35.44 128.042 35.44ZM144.564 24.232C145.268 24.232 145.828 24.32 146.244 24.496C146.676 24.672 147.004 24.896 147.228 25.168C147.484 25.472 147.668 25.864 147.78 26.344C147.908 26.824 147.972 27.472 147.972 28.288V34.768C147.972 35.44 148.076 35.896 148.284 36.136C148.508 36.376 148.884 36.496 149.412 36.496V37C149.092 36.984 148.612 36.968 147.972 36.952C147.348 36.92 146.74 36.904 146.148 36.904C145.492 36.904 144.86 36.92 144.252 36.952C143.644 36.968 143.188 36.984 142.884 37V36.496C143.332 36.496 143.644 36.376 143.82 36.136C143.996 35.896 144.084 35.44 144.084 34.768V27.136C144.084 26.768 144.044 26.456 143.964 26.2C143.884 25.928 143.748 25.728 143.556 25.6C143.364 25.456 143.092 25.384 142.74 25.384C142.372 25.384 142.028 25.48 141.708 25.672C141.404 25.864 141.156 26.136 140.964 26.488C140.788 26.824 140.7 27.208 140.7 27.64V34.768C140.7 35.44 140.788 35.896 140.964 36.136C141.14 36.376 141.452 36.496 141.9 36.496V37C141.596 36.984 141.156 36.968 140.58 36.952C140.004 36.92 139.42 36.904 138.828 36.904C138.172 36.904 137.516 36.92 136.86 36.952C136.204 36.968 135.708 36.984 135.372 37V36.496C135.9 36.496 136.268 36.376 136.476 36.136C136.7 35.896 136.812 35.44 136.812 34.768V27.184C136.812 26.464 136.708 25.936 136.5 25.6C136.292 25.248 135.916 25.072 135.372 25.072V24.568C135.884 24.616 136.38 24.64 136.86 24.64C137.58 24.64 138.26 24.616 138.9 24.568C139.556 24.504 140.156 24.416 140.7 24.304V26.248C141.084 25.512 141.604 24.992 142.26 24.688C142.932 24.384 143.7 24.232 144.564 24.232ZM154.795 41.512C153.755 41.512 152.843 41.424 152.059 41.248C151.275 41.088 150.667 40.84 150.235 40.504C149.803 40.184 149.587 39.792 149.587 39.328C149.587 38.848 149.811 38.408 150.259 38.008C150.707 37.624 151.395 37.32 152.323 37.096L152.539 37.48C152.267 37.752 152.075 38.016 151.963 38.272C151.851 38.544 151.795 38.808 151.795 39.064C151.795 39.72 152.091 40.224 152.683 40.576C153.275 40.928 154.091 41.104 155.131 41.104C155.851 41.104 156.475 41 157.003 40.792C157.531 40.6 157.939 40.32 158.227 39.952C158.515 39.584 158.659 39.152 158.659 38.656C158.659 38.192 158.483 37.8 158.131 37.48C157.795 37.16 157.107 37 156.067 37H154.675C153.987 37 153.395 36.912 152.899 36.736C152.403 36.56 152.019 36.312 151.747 35.992C151.491 35.672 151.363 35.272 151.363 34.792C151.363 34.072 151.643 33.464 152.203 32.968C152.763 32.456 153.539 31.984 154.531 31.552L154.747 31.744C154.507 31.888 154.275 32.056 154.051 32.248C153.843 32.44 153.739 32.696 153.739 33.016C153.739 33.528 154.043 33.784 154.651 33.784H157.123C158.083 33.784 158.931 33.896 159.667 34.12C160.403 34.328 160.979 34.68 161.395 35.176C161.827 35.656 162.043 36.288 162.043 37.072C162.043 37.872 161.787 38.608 161.275 39.28C160.763 39.952 159.971 40.488 158.899 40.888C157.843 41.304 156.475 41.512 154.795 41.512ZM155.107 31.888C154.147 31.888 153.291 31.752 152.539 31.48C151.803 31.208 151.219 30.792 150.787 30.232C150.355 29.656 150.139 28.928 150.139 28.048C150.139 27.168 150.355 26.448 150.787 25.888C151.219 25.328 151.803 24.912 152.539 24.64C153.291 24.368 154.147 24.232 155.107 24.232C156.051 24.232 156.899 24.368 157.651 24.64C158.403 24.912 158.995 25.328 159.427 25.888C159.859 26.448 160.075 27.168 160.075 28.048C160.075 28.928 159.859 29.656 159.427 30.232C158.995 30.792 158.403 31.208 157.651 31.48C156.899 31.752 156.051 31.888 155.107 31.888ZM155.107 31.456C155.459 31.456 155.739 31.208 155.947 30.712C156.171 30.216 156.283 29.328 156.283 28.048C156.283 26.768 156.171 25.888 155.947 25.408C155.739 24.912 155.459 24.664 155.107 24.664C154.739 24.664 154.451 24.912 154.243 25.408C154.035 25.888 153.931 26.768 153.931 28.048C153.931 29.328 154.035 30.216 154.243 30.712C154.451 31.208 154.739 31.456 155.107 31.456ZM158.923 26.32L158.419 26.152C158.675 25.496 159.067 24.968 159.595 24.568C160.139 24.152 160.731 23.944 161.371 23.944C161.899 23.944 162.291 24.088 162.547 24.376C162.819 24.664 162.955 25.04 162.955 25.504C162.955 25.968 162.827 26.328 162.571 26.584C162.331 26.824 162.043 26.944 161.707 26.944C161.419 26.944 161.155 26.848 160.915 26.656C160.675 26.448 160.539 26.144 160.507 25.744C160.475 25.328 160.619 24.808 160.939 24.184L161.083 24.328C160.491 24.536 160.035 24.792 159.715 25.096C159.411 25.4 159.147 25.808 158.923 26.32ZM166.597 37.168C165.861 37.168 165.253 37.032 164.773 36.76C164.293 36.472 163.941 36.096 163.717 35.632C163.493 35.168 163.381 34.672 163.381 34.144C163.381 33.472 163.533 32.92 163.837 32.488C164.157 32.056 164.565 31.712 165.061 31.456C165.557 31.184 166.077 30.96 166.621 30.784C167.165 30.608 167.685 30.44 168.181 30.28C168.677 30.104 169.077 29.904 169.381 29.68C169.685 29.44 169.837 29.136 169.837 28.768V26.776C169.837 26.424 169.781 26.096 169.669 25.792C169.573 25.472 169.389 25.216 169.117 25.024C168.861 24.816 168.501 24.712 168.037 24.712C167.749 24.712 167.469 24.752 167.197 24.832C166.925 24.912 166.685 25.04 166.477 25.216C166.989 25.392 167.365 25.656 167.605 26.008C167.861 26.36 167.989 26.752 167.989 27.184C167.989 27.776 167.781 28.248 167.365 28.6C166.965 28.936 166.485 29.104 165.925 29.104C165.317 29.104 164.845 28.912 164.509 28.528C164.189 28.144 164.029 27.68 164.029 27.136C164.029 26.656 164.149 26.256 164.389 25.936C164.629 25.6 164.981 25.296 165.445 25.024C165.909 24.752 166.469 24.552 167.125 24.424C167.781 24.296 168.477 24.232 169.213 24.232C169.965 24.232 170.653 24.312 171.277 24.472C171.917 24.616 172.461 24.912 172.909 25.36C173.261 25.728 173.485 26.176 173.581 26.704C173.677 27.232 173.725 27.904 173.725 28.72V35.2C173.725 35.6 173.757 35.88 173.821 36.04C173.901 36.184 174.021 36.256 174.181 36.256C174.325 36.256 174.461 36.216 174.589 36.136C174.717 36.056 174.845 35.968 174.973 35.872L175.237 36.28C174.885 36.568 174.469 36.792 173.989 36.952C173.509 37.096 172.989 37.168 172.429 37.168C171.789 37.168 171.285 37.088 170.917 36.928C170.565 36.752 170.309 36.52 170.149 36.232C170.005 35.944 169.925 35.624 169.909 35.272C169.557 35.848 169.117 36.312 168.589 36.664C168.061 37 167.397 37.168 166.597 37.168ZM168.589 35.44C168.845 35.44 169.069 35.392 169.261 35.296C169.469 35.184 169.661 35 169.837 34.744V29.752C169.709 29.976 169.533 30.192 169.309 30.4C169.101 30.592 168.877 30.792 168.637 31C168.397 31.192 168.165 31.408 167.941 31.648C167.733 31.888 167.557 32.176 167.413 32.512C167.285 32.832 167.221 33.224 167.221 33.688C167.221 34.312 167.349 34.76 167.605 35.032C167.861 35.304 168.189 35.44 168.589 35.44ZM185.111 24.232C185.815 24.232 186.375 24.32 186.791 24.496C187.223 24.672 187.551 24.896 187.775 25.168C188.031 25.472 188.215 25.864 188.327 26.344C188.455 26.824 188.519 27.472 188.519 28.288V34.768C188.519 35.44 188.623 35.896 188.831 36.136C189.055 36.376 189.431 36.496 189.959 36.496V37C189.639 36.984 189.159 36.968 188.519 36.952C187.895 36.92 187.287 36.904 186.695 36.904C186.039 36.904 185.407 36.92 184.799 36.952C184.191 36.968 183.735 36.984 183.431 37V36.496C183.879 36.496 184.191 36.376 184.367 36.136C184.543 35.896 184.631 35.44 184.631 34.768V27.136C184.631 26.768 184.591 26.456 184.511 26.2C184.431 25.928 184.295 25.728 184.103 25.6C183.911 25.456 183.639 25.384 183.287 25.384C182.919 25.384 182.575 25.48 182.255 25.672C181.951 25.864 181.703 26.136 181.511 26.488C181.335 26.824 181.247 27.208 181.247 27.64V34.768C181.247 35.44 181.335 35.896 181.511 36.136C181.687 36.376 181.999 36.496 182.447 36.496V37C182.143 36.984 181.703 36.968 181.127 36.952C180.551 36.92 179.967 36.904 179.375 36.904C178.719 36.904 178.063 36.92 177.407 36.952C176.751 36.968 176.255 36.984 175.919 37V36.496C176.447 36.496 176.815 36.376 177.023 36.136C177.247 35.896 177.359 35.44 177.359 34.768V27.184C177.359 26.464 177.255 25.936 177.047 25.6C176.839 25.248 176.463 25.072 175.919 25.072V24.568C176.431 24.616 176.927 24.64 177.407 24.64C178.127 24.64 178.807 24.616 179.447 24.568C180.103 24.504 180.703 24.416 181.247 24.304V26.248C181.631 25.512 182.151 24.992 182.807 24.688C183.479 24.384 184.247 24.232 185.111 24.232ZM195.987 20.656V24.568H198.579V25.048H195.987V34.864C195.987 35.264 196.059 35.552 196.203 35.728C196.347 35.888 196.563 35.968 196.851 35.968C197.091 35.968 197.339 35.888 197.595 35.728C197.867 35.568 198.115 35.296 198.339 34.912L198.723 35.152C198.419 35.808 197.995 36.336 197.451 36.736C196.923 37.136 196.227 37.336 195.363 37.336C194.835 37.336 194.363 37.264 193.947 37.12C193.547 36.992 193.211 36.792 192.939 36.52C192.587 36.168 192.355 35.736 192.243 35.224C192.147 34.696 192.099 34.016 192.099 33.184V25.048H190.179V24.568H192.099V21.568C192.851 21.568 193.539 21.496 194.163 21.352C194.803 21.208 195.411 20.976 195.987 20.656ZM202.457 37.168C201.721 37.168 201.113 37.032 200.633 36.76C200.153 36.472 199.801 36.096 199.577 35.632C199.353 35.168 199.241 34.672 199.241 34.144C199.241 33.472 199.393 32.92 199.697 32.488C200.017 32.056 200.425 31.712 200.921 31.456C201.417 31.184 201.937 30.96 202.481 30.784C203.025 30.608 203.545 30.44 204.041 30.28C204.537 30.104 204.937 29.904 205.241 29.68C205.545 29.44 205.697 29.136 205.697 28.768V26.776C205.697 26.424 205.641 26.096 205.529 25.792C205.433 25.472 205.249 25.216 204.977 25.024C204.721 24.816 204.361 24.712 203.897 24.712C203.609 24.712 203.329 24.752 203.057 24.832C202.785 24.912 202.545 25.04 202.337 25.216C202.849 25.392 203.225 25.656 203.465 26.008C203.721 26.36 203.849 26.752 203.849 27.184C203.849 27.776 203.641 28.248 203.225 28.6C202.825 28.936 202.345 29.104 201.785 29.104C201.177 29.104 200.705 28.912 200.369 28.528C200.049 28.144 199.889 27.68 199.889 27.136C199.889 26.656 200.009 26.256 200.249 25.936C200.489 25.6 200.841 25.296 201.305 25.024C201.769 24.752 202.329 24.552 202.985 24.424C203.641 24.296 204.337 24.232 205.073 24.232C205.825 24.232 206.513 24.312 207.137 24.472C207.777 24.616 208.321 24.912 208.769 25.36C209.121 25.728 209.345 26.176 209.441 26.704C209.537 27.232 209.585 27.904 209.585 28.72V35.2C209.585 35.6 209.617 35.88 209.681 36.04C209.761 36.184 209.881 36.256 210.041 36.256C210.185 36.256 210.321 36.216 210.449 36.136C210.577 36.056 210.705 35.968 210.833 35.872L211.097 36.28C210.745 36.568 210.329 36.792 209.849 36.952C209.369 37.096 208.849 37.168 208.289 37.168C207.649 37.168 207.145 37.088 206.777 36.928C206.425 36.752 206.169 36.52 206.009 36.232C205.865 35.944 205.785 35.624 205.769 35.272C205.417 35.848 204.977 36.312 204.449 36.664C203.921 37 203.257 37.168 202.457 37.168ZM204.449 35.44C204.705 35.44 204.929 35.392 205.121 35.296C205.329 35.184 205.521 35 205.697 34.744V29.752C205.569 29.976 205.393 30.192 205.169 30.4C204.961 30.592 204.737 30.792 204.497 31C204.257 31.192 204.025 31.408 203.801 31.648C203.593 31.888 203.417 32.176 203.273 32.512C203.145 32.832 203.081 33.224 203.081 33.688C203.081 34.312 203.209 34.76 203.465 35.032C203.721 35.304 204.049 35.44 204.449 35.44Z" fill="white"/>
<circle cx="25.5" cy="28.5" r="25.5" fill="white"/>
<path d="M16.224 16.512C16.824 16.536 17.628 16.56 18.636 16.584C19.668 16.608 20.688 16.62 21.696 16.62C22.848 16.62 23.964 16.608 25.044 16.584C26.124 16.56 26.892 16.548 27.348 16.548C30.684 16.548 33.18 17.208 34.836 18.528C36.492 19.848 37.32 21.552 37.32 23.64C37.32 24.504 37.152 25.416 36.816 26.376C36.48 27.312 35.904 28.188 35.088 29.004C34.296 29.796 33.204 30.444 31.812 30.948C30.42 31.452 28.668 31.704 26.556 31.704H22.884V30.984H26.196C27.612 30.984 28.68 30.66 29.4 30.012C30.144 29.364 30.648 28.512 30.912 27.456C31.2 26.4 31.344 25.26 31.344 24.036C31.344 21.756 31.008 20.052 30.336 18.924C29.664 17.796 28.512 17.232 26.88 17.232C25.944 17.232 25.332 17.436 25.044 17.844C24.78 18.252 24.648 19.08 24.648 20.328V37.968C24.648 38.904 24.744 39.6 24.936 40.056C25.128 40.512 25.5 40.812 26.052 40.956C26.604 41.1 27.42 41.184 28.5 41.208V42C27.756 41.976 26.796 41.952 25.62 41.928C24.444 41.904 23.208 41.892 21.912 41.892C20.88 41.892 19.872 41.904 18.888 41.928C17.904 41.952 17.016 41.976 16.224 42V41.28C16.992 41.232 17.568 41.136 17.952 40.992C18.336 40.848 18.588 40.56 18.708 40.128C18.852 39.696 18.924 39.048 18.924 38.184V20.328C18.924 19.44 18.852 18.792 18.708 18.384C18.588 17.952 18.324 17.664 17.916 17.52C17.532 17.352 16.968 17.256 16.224 17.232V16.512Z" fill="black"/>
</svg>
